<?xml version="1.0" standalone="no"?>
<!DOCTYPE svg PUBLIC "-//W3C//DTD SVG 20010904//EN" "http://www.w3.org/TR/2001/REC-SVG-20010904/DTD/svg10.dtd">
<!-- Created using Krita: https://krita.org -->
<svg xmlns="http://www.w3.org/2000/svg" 
    xmlns:xlink="http://www.w3.org/1999/xlink"
    xmlns:krita="http://krita.org/namespaces/svg/krita"
    xmlns:sodipodi="http://sodipodi.sourceforge.net/DTD/sodipodi-0.dtd"
    width="1721.52pt"
    height="1896.24pt"
    viewBox="0 0 1721.52 1896.24">
<defs/>
<path id="shape0" transform="matrix(-13.6855507100289 4.05739918058418 -3.66703226072742 -15.1424198885284 1038.8021241135 1378.44657204948)" fill="none" stroke="#000000" stroke-width="0.676798464" stroke-linecap="square" stroke-linejoin="bevel" d="M0 7.5851C0 -5.19928 27.0584 -0.720525 22.048 12.8075C21.8817 13.2564 21.7112 15.2632 21.344 14.0075"/><path id="shape1" transform="matrix(-13.6855507100289 4.05739918058418 -3.66703226072742 -15.1424198885284 1020.81400606229 1278.98714841891)" fill="none" stroke="#000000" stroke-width="0.676798464" stroke-linecap="square" stroke-linejoin="bevel" d="M0.415726 1.12824C-1.62457 1.12824 4.40171 0.139973 6.43973 0.0434357C11.8546 -0.213059 15.0901 0.59431 19.0051 4.41144C19.5881 4.97995 23.3918 7.84589 21.7597 7.55064"/><path id="shape2" transform="matrix(-13.6855507100289 4.05739918058418 -3.66703226072742 -15.1424198885284 1379.98821559911 1152.58108106657)" fill="none" stroke="#000000" stroke-width="0.676798464" stroke-linecap="square" stroke-linejoin="bevel" d="M34.9761 10.9504C33.1231 5.64118 30.1705 -6.02627 15.5521 3.82722C-4.2977 19.0127 -6.16646 67.5528 15.8827 72.448C42.9043 78.9833 63.8225 35.9405 53.3014 11.4016C50.3459 4.65214 39.2969 4.03638 35.5041 11.6704"/><path id="shape3" transform="matrix(-13.6855507100289 4.05739918058418 -3.66703226072742 -15.1424198885284 1078.36765725971 1041.06949191068)" fill="none" stroke="#000000" stroke-width="0.676798464" stroke-linecap="square" stroke-linejoin="bevel" d="M15.6408 0.000100842C16.8716 -0.0797331 -2.97022 47.2659 0.382114 58.3201C0.47421 58.9003 0.756007 60.5832 0.883447 60.0097"/><path id="shape4" transform="matrix(-13.6855507100289 4.05739918058418 -3.66703226072742 -15.1424198885284 1243.0468426381 1003.82640894364)" fill="none" stroke="#000000" stroke-width="0.676798464" stroke-linecap="square" stroke-linejoin="bevel" d="M28.624 0.00320496C27.3998 -0.473312 7.11002 52.343 0 54.1376"/><path id="shape5" transform="matrix(-13.6855507100289 4.05739918058418 -3.66703226072742 -15.1424198885284 862.196242393415 1121.94752887418)" fill="none" stroke="#000000" stroke-width="0.676798464" stroke-linecap="square" stroke-linejoin="bevel" d="M0.709333 0.32417C8.96182 -3.66897 44.6752 30.3454 33.152 40.9418C3.67885 68.0443 6.7273 5.92264 0 1.43777"/><path id="shape6" transform="matrix(-13.6855507100289 4.05739918058418 -3.66703226072742 -15.1424198885284 1615.57048740931 941.981575083229)" fill="none" stroke="#000000" stroke-width="0.676798464" stroke-linecap="square" stroke-linejoin="bevel" d="M54.4032 2.95508C54.7799 4.32321 45.2345 1.47047 43.8588 1.12226C30.2697 -2.16807 -6.76105 1.1651 1.07792 19.3554C9.53331 47.7708 52.4277 4.14196 54.373 3.32165"/><path id="shape7" transform="matrix(-13.6855507100289 4.05739918058418 -3.66703226072742 -15.1424198885284 548.114998539755 542.416085280477)" fill="none" stroke="#000000" stroke-width="0.676798464" stroke-linecap="square" stroke-linejoin="bevel" d="M0 4.54435C1.67773 6.8614 3.67884 10.017 4.46218 11.5152C7.38074 17.1642 1.56553 22.5993 0.334184 31.7712C0.454295 33.1765 1.97952 36.0384 1.97952 36.0384C1.97952 36.0384 2.10718 30.9392 3.09418 28.5408C9.31089 13.618 6.76495 16.131 4.16885 5.7744C3.9354 3.96753 2.6542 2.62522 2.64352 0"/><path id="shape8" transform="matrix(-13.6855507100289 4.05739918058418 -3.66703226072742 -15.1424198885284 1542.52682859744 520.841106128669)" fill="none" stroke="#000000" stroke-width="0.676798464" stroke-linecap="square" stroke-linejoin="bevel" d="M21.7418 0C17.7264 2.15803 12.1444 4.9164 10.0924 6.3528C5.98335 9.22916 4.28976 21.6336 0.865765 26.5128C0.84335 26.5447 -0.0447506 27.666 0.0017651 27.6744C7.354 25.7734 7.86418 11.7273 9.62821 8.95111C10.608 6.30575 21.6231 4.55523 21.6231 2.292"/><path id="shape9" transform="matrix(-13.6855507100289 4.05739918058418 -3.66703226072742 -15.1424198885284 523.842146645664 1002.33448536723)" fill="none" stroke="#000000" stroke-width="0.676798464" stroke-linecap="square" stroke-linejoin="bevel" d="M0.259579 0C3.72954 2.0273 8.42172 3.8449 10.3062 4.81405C15.5507 8.31683 10.6801 13.1148 11.4155 21.422C12.1509 29.7293 16.3862 28.9473 19.4475 28.766C21.215 28.6614 17.6414 31.2686 13.6875 29.7596C9.73357 28.2507 8.94868 16.9357 10.4288 8.79325C9.8655 5.48123 4.37568 4.89591 0.246073 3.75726M0 4.21207"/><path id="shape10" transform="matrix(-13.6855507100289 4.05739918058418 -3.66703226072742 -15.1424198885284 1412.08954231404 1594.30811792558)" fill="none" stroke="#000000" stroke-width="0.676798464" stroke-linecap="square" stroke-linejoin="bevel" d="M12.3417 30.1674C10.2244 29.1648 5.83513 24.2753 4.56502 23.111C0.513021 19.3964 6.0199 11.1351 3.15962 6.44087C2.82198 5.88674 0.316449 -0.295167 0.146356 0.0110005C-0.698342 4.8736 2.40573 5.63683 2.02369 12.9182C1.83323 16.5483 -0.40698 23.3257 2.3898 25.063C4.47483 26.3582 8.89774 29.7688 10.189 31.7582"/><path id="shape11" transform="matrix(-13.6855507100289 4.05739918058418 -3.66703226072742 -15.1424198885284 627.87729589018 1387.8464630794)" fill="none" stroke="#000000" stroke-width="0.676798464" stroke-linecap="square" stroke-linejoin="bevel" d="M0 17.4601C0.583085 16.8714 5.97919 16.4845 9.94379 15.392C13.9084 14.2995 13.4035 12.4351 17.3656 6.71662C21.1001 2.56714 28.521 -1.20508 29.524 0.362838C22.4372 3.60037 17.03 9.63166 13.2273 17.4625C11.1723 17.6878 3.99174 18.9199 0.389333 19.6057"/><path id="shape12" transform="matrix(-13.6855507100289 4.05739918058418 -3.66703226072742 -15.1424198885284 814.603438615973 1802.90459123732)" fill="none" stroke="#000000" stroke-width="0.676798464" stroke-linecap="square" stroke-linejoin="bevel" d="M0.393146 30.0014C7.01419 27.856 12.1748 22.9041 16.8131 16.3112C21.8415 9.39415 23.3895 1.81747 21.6595 0.020902C21.6466 -0.482395 21.1486 8.22692 17.9448 12.8153C15.6323 16.9028 11.143 22.2222 9.40082 23.6921C7.76238 26.1666 -1.9978 29.9663 0.367628 28.2619"/><path id="shape13" transform="matrix(-13.6855507100289 4.05739918058418 -3.66703226072742 -15.1424198885284 1146.45697976107 1855.80633428869)" fill="none" stroke="#000000" stroke-width="0.676798464" stroke-linecap="square" stroke-linejoin="bevel" d="M4.34354 31.7454C4.69822 32.1923 2.92616 29.6311 2.40487 28.1454C-0.590904 21.6265 1.60104 9.80579 2.08754 6.7506C2.57404 3.69542 5.95607 -0.560649 4.57437 0.0611169C0.0841609 2.08587 -0.576526 20.9795 0.37912 24.2379C1.33477 27.4964 2.48858 34.4563 3.90523 32.0885"/><path id="shape14" transform="matrix(-13.6855507100289 4.05739918058418 -3.66703226072742 -15.1424198885284 1657.21910068713 926.743487764725)" fill="none" stroke="#000000" stroke-width="0.676798464" stroke-linecap="square" stroke-linejoin="bevel" d="M31.0597 1.07653C35.7506 1.07653 23.2526 0.684699 18.6061 0.0413305C12.4549 -0.810374 12.8331 11.7468 7.57898 15.0569C5.6159 16.2936 -1.5714 14.5223 0.311501 15.8779C2.47486 17.4367 7.367 17.9284 9.58083 16.3195C12.9658 13.8596 14.5089 1.30906 20.2475 1.69874C21.7937 1.80374 27.4878 2.86985 30.4695 3.44563M30.7755 3.49394"/><ellipse id="shape15" transform="matrix(-13.6855507100289 4.05739918058418 -3.66703226072742 -15.1424198885284 903.694043724411 1389.89447365793)" rx="1.20000000000002" ry="0.95999999999998" cx="1.20000000000002" cy="0.95999999999998" fill="none" stroke="#000000" stroke-width="0.676798464" stroke-linecap="square" stroke-linejoin="bevel"/><ellipse id="shape16" transform="matrix(-13.6855507100289 4.05739918058418 -3.66703226072742 -15.1424198885284 803.806353269845 1384.45256919223)" rx="1.07999999999998" ry="1.20000000000002" cx="1.07999999999998" cy="1.20000000000002" fill="none" stroke="#000000" stroke-width="0.676798464" stroke-linecap="square" stroke-linejoin="bevel"/>
</svg>
