<?xml version="1.0" standalone="no"?>
<!DOCTYPE svg PUBLIC "-//W3C//DTD SVG 20010904//EN" "http://www.w3.org/TR/2001/REC-SVG-20010904/DTD/svg10.dtd">
<!-- Created using Krita: https://krita.org -->
<svg xmlns="http://www.w3.org/2000/svg" 
    xmlns:xlink="http://www.w3.org/1999/xlink"
    xmlns:krita="http://krita.org/namespaces/svg/krita"
    xmlns:sodipodi="http://sodipodi.sourceforge.net/DTD/sodipodi-0.dtd"
    width="600pt"
    height="360pt"
    viewBox="0 0 600 360">
<defs/>
<path id="shape0" transform="matrix(4.51738323922619 0.0157327614657549 -0.0160934224317995 4.62094063483019 168.340677307942 48.3163246723511)" fill="none" stroke="#000000" stroke-width="0.676798464" stroke-linecap="square" stroke-linejoin="bevel" d="M6.14189 14.5273C2.31609 18.4601 1.79658 20.5774 0.533893 24.1585C-0.728794 27.7396 -0.2223 35.1555 7.30189 38.2801M7.44589 38.4865M18.7366 42.6481C21.2603 43.2783 34.6703 43.1792 42.3126 42.4313M53.2312 38.0761C57.5353 35.6412 59.7683 28.4953 58.9211 24.232C57.8003 18.5926 55.6973 17.2619 52.8246 13.8217C57.2406 4.96167 48.3449 -1.64478 42.9754 0.361161C37.606 2.36711 40.4079 4.2979 35.7732 4.6038C31.5734 4.0649 26.3108 6.18093 20.0698 4.76672C17.4847 0.30122 10.6231 0.208351 7.46989 2.76247C4.31666 5.31659 2.12728 9.28324 5.80589 14.2057"/><ellipse id="shape1" transform="matrix(4.51738323922619 0.0157327614657549 -0.0160934224317995 4.62094063483019 214.50603904635 75.8041491859403)" rx="2.88000000000001" ry="2.75999999999999" cx="2.88000000000001" cy="2.75999999999999" fill="none" stroke="#000000" stroke-width="0.676798464" stroke-linecap="square" stroke-linejoin="bevel"/><path id="shape2" transform="matrix(4.51738323922619 0.0157327614657549 -0.0160934224317995 4.62094063483019 283.845013706002 107.132006010837)" fill="none" stroke="#000000" stroke-width="0.676798464" stroke-linecap="square" stroke-linejoin="miter" stroke-miterlimit="2" d="M0 1.152C2.04701 3.50172 3.26099 1.00643 4.704 0C6.85312 3.07667 8.75055 1.64719 9.248 0.7776"/><path id="shape3" transform="matrix(4.51738323922619 0.0157327614657549 -0.0160934224317995 4.62094063483019 60.2561668423626 226.395713075763)" fill="none" stroke="#000000" stroke-width="0.676798464" stroke-linecap="square" stroke-linejoin="bevel" d="M0 0"/><path id="shape4" transform="matrix(4.51738323922619 0.0157327614657549 -0.0160934224317995 4.62094063483019 197.272892954717 184.307978724613)" fill="none" stroke="#000000" stroke-width="0.676798464" stroke-linecap="square" stroke-linejoin="bevel" d="M6.10182 0C3.06807 3.70303 -3.14362 14.7744 1.92048 14.7744C3.28627 14.7744 7.96896 15.8444 10.7098 14.6112C13.4507 13.378 13.9912 8.43748 14.1185 6.6838"/><path id="shape5" transform="matrix(4.51738323922619 0.0157327614657549 -0.0160934224317995 4.62094063483019 351.216809927337 182.004981256547)" fill="none" stroke="#000000" stroke-width="0.676798464" stroke-linecap="square" stroke-linejoin="bevel" d="M7.08723 0C8.51575 1.90055 15.5143 12.9616 14.1379 14.832C12.4928 17.0673 4.90144 16.1533 3.58267 15.3015C1.15206 13.7315 0.759986 10.4549 0 7.44076"/><path id="shape6" transform="matrix(4.51738323922619 0.0157327614657549 -0.0160934224317995 4.62094063483019 410.734225202078 187.437363734103)" fill="none" stroke="#000000" stroke-width="0.676798464" stroke-linecap="square" stroke-linejoin="bevel" d="M5.06602 0.0987993C4.05003 -0.449835 9.18479 1.45046 10.292 1.77807C30.3308 7.70735 7.23047 8.24127 0 8.24127"/><path id="shape7" transform="matrix(4.51738323922619 0.0157327614657549 -0.0160934224317995 4.62094063483019 105.545312649152 197.197174562399)" fill="none" stroke="#000000" stroke-width="0.676798464" stroke-linecap="square" stroke-linejoin="bevel" d="M14.3998 0C3.60367 0.809707 -9.63618 7.82021 10.3438 6.972C11.2607 7.18613 20.7322 6.29108 20.6451 6.0048"/><path id="shape8" transform="matrix(4.51738323922619 0.0157327614657549 -0.0160934224317995 4.62094063483019 225.31299702804 85.8231395846915)" fill="none" stroke="#000000" stroke-width="0.676798464" stroke-linecap="square" stroke-linejoin="bevel" d="M0.96 0.24C0.96 0.107452 0.745097 8.11598e-18 0.48 0C0.214903 -8.11598e-18 3.24639e-17 0.107452 0 0.24C-3.24639e-17 0.372548 0.374903 0.9984 0.570667 0.8016C0.835763 0.8016 0.96 0.372548 0.96 0.24Z"/><path id="shape9" transform="matrix(4.51738323922619 0.0157327614657549 -0.0160934224317995 4.62094063483019 168.656839238377 120.832208180871)" fill="none" stroke="#000000" stroke-width="0.676798464" stroke-linecap="square" stroke-linejoin="bevel" d="M0 10.446C3.51253 10.446 9.68533 9.13345 9.68533 5.88601C9.68533 2.63858 8.73071 1.94289e-16 5.21818 0"/><path id="shape10" transform="matrix(4.51738323922619 0.0157327614657549 -0.0160934224317995 4.62094063483019 421.606565344013 134.843220264539)" sodipodi:type="arc" sodipodi:rx="6.23999999999998" sodipodi:ry="6.36000000000001" sodipodi:cx="6.24046493509481" sodipodi:cy="1.84462240204961" sodipodi:start="2.16767882222527" sodipodi:end="3.43585603062375" sodipodi:open="true" d="M0.268685 0C-0.52308 2.66279 0.475295 5.54104 2.73317 7.10493" fill="none" stroke="#000000" stroke-width="0.676798464" stroke-linecap="square" stroke-linejoin="bevel"/><path id="shape11" transform="matrix(4.51738323922619 0.0157327614657549 -0.0160934224317995 4.62094063483019 378.017354659444 197.863719494014)" sodipodi:type="arc" sodipodi:rx="6.59999999999999" sodipodi:ry="5.39999999999998" sodipodi:cx="6.60097918598922" sodipodi:cy="4.73391186446375" sodipodi:start="1.34688668209344" sodipodi:end="4.21044798226383" sodipodi:open="true" d="M3.42553 0C0.53985 1.29578 -0.737706 4.13318 0.430888 6.65097C1.59948 9.16876 4.85692 10.5971 8.06647 9.99911" fill="none" stroke="#000000" stroke-width="0.676798464" stroke-linecap="square" stroke-linejoin="bevel"/><path id="shape12" transform="matrix(4.51738323922619 0.0157327614657549 -0.0160934224317995 4.62094063483019 116.08296582001 200.185475677164)" sodipodi:type="arc" sodipodi:rx="6" sodipodi:ry="2.40000000000001" sodipodi:cx="4.2221404038307" sodipodi:cy="1.5140630203306" sodipodi:start="5.60052472548417" sodipodi:end="2.35137412634622" sodipodi:open="true" d="M0 3.21928C2.26537 4.11673 5.8899 4.14874 8.25207 3.29214C10.6142 2.43554 10.8889 0.989544 8.87752 2.22045e-16" fill="none" stroke="#000000" stroke-width="0.676798464" stroke-linecap="square" stroke-linejoin="bevel"/><path id="shape13" transform="matrix(4.51738323922619 0.0157327614657549 -0.0160934224317995 4.62094063483019 2.97019436325036 175.906582379398)" fill="none" stroke="#000000" stroke-width="0.676798464" stroke-linecap="square" stroke-linejoin="bevel" d="M36.344 0.0324513C28.534 0.694335 25.0267 1.17039 19.1201 2.35389C7.30671 4.72091 0 7.99091 0 11.6029C0 15.2148 7.30671 18.4848 19.1201 20.8518C25.0267 22.0353 45.8913 24.165 53.2747 23.3293C60.9033 22.5895 65.2447 16.823 66.224 16.9549C67.2033 17.0867 71.319 24.2183 81.2747 23.5213C89.0847 22.8594 105.533 22.0353 111.44 20.8518C123.253 18.4848 130.56 15.2148 130.56 11.6029C130.56 6.5594 116.314 2.18265 95.4448 0"/><path id="shape14" transform="matrix(4.51738323922619 0.0157327614657549 -0.0160934224317995 4.62094063483019 308.724508585311 15.592541866361)" fill="none" stroke="#ffffff" stroke-width="0.676798464" stroke-linecap="square" stroke-linejoin="miter" stroke-miterlimit="2" d="M0 0L0.595855 0.176494"/><ellipse id="shape15" transform="matrix(4.51738323922619 0.0157327614657549 -0.0160934224317995 4.62094063483019 42.4510004550872 -19.0634019421286)" rx="1.2" ry="0.119999999999976" cx="1.2" cy="0.119999999999976" fill="none" stroke="#ffffff" stroke-width="0.676798464" stroke-linecap="square" stroke-linejoin="bevel"/><ellipse id="shape16" transform="matrix(4.51738323922619 0.0157327614657549 -0.0160934224317995 4.62094063483019 358.700912042449 76.3063389319273)" rx="3" ry="2.63999999999999" cx="3" cy="2.63999999999999" fill="none" stroke="#000000" stroke-width="0.676798464" stroke-linecap="square" stroke-linejoin="bevel"/><ellipse id="shape17" transform="matrix(4.51738323922619 0.0157327614657549 -0.0160934224317995 4.62094063483019 368.423698046726 86.3215534679266)" rx="0.480000000000018" ry="0.360000000000014" cx="0.480000000000018" cy="0.360000000000014" fill="none" stroke="#000000" stroke-width="0.676798464" stroke-linecap="square" stroke-linejoin="bevel"/>
</svg>
